<?xml version="1.0" encoding="UTF-8" standalone="no"?>
<svg
   xmlns:dc="http://purl.org/dc/elements/1.1/"
   xmlns:cc="http://creativecommons.org/ns#"
   xmlns:rdf="http://www.w3.org/1999/02/22-rdf-syntax-ns#"
   xmlns:svg="http://www.w3.org/2000/svg"
   xmlns="http://www.w3.org/2000/svg"
   viewBox="0 0 405.33334 109.33333"
   height="109.33333"
   width="405.33334"
   xml:space="preserve"
   id="svg2"
   version="1.1"><metadata
     id="metadata8"><rdf:RDF><cc:Work
         rdf:about=""><dc:format>image/svg+xml</dc:format><dc:type
           rdf:resource="http://purl.org/dc/dcmitype/StillImage" /></cc:Work></rdf:RDF></metadata><defs
     id="defs6" /><g
     transform="matrix(1.3333333,0,0,-1.3333333,0,109.33333)"
     id="g10"><g
       transform="scale(0.1)"
       id="g12"><path
         id="path14"
         style="fill:#f8c24f;fill-opacity:1;fill-rule:evenodd;stroke:none"
         d="m 1182.62,349.77 c 2.54,96.359 35.7,176.558 99.49,240.621 64.06,63.789 144.26,96.949 240.62,99.488 96.33,-2.539 176.53,-35.699 240.59,-99.488 64.06,-64.063 97.34,-144.262 99.88,-240.621 -2.54,-96.329 -35.82,-176.571 -99.88,-240.59 C 1699.49,45.1211 1619.3,11.8398 1522.73,9.30078 1426.37,11.8398 1346.17,45.1211 1282.11,109.18 c -63.79,63.789 -96.95,144.019 -99.49,240.59" /><path
         id="path16"
         style="fill:#42ab42;fill-opacity:1;fill-rule:evenodd;stroke:none"
         d="m 1339.61,349.77 c 1.25,51.992 19.18,95.191 53.71,129.761 34.57,34.528 77.81,52.457 129.77,53.707 51.95,-1.25 95.23,-19.179 129.76,-53.707 34.57,-34.57 52.46,-77.769 53.71,-129.761 -1.25,-51.961 -19.14,-95.2 -53.71,-129.77 -34.53,-34.531 -77.81,-52.461 -129.76,-53.711 -51.96,1.25 -95.2,19.18 -129.77,53.711 -34.53,34.57 -52.46,77.809 -53.71,129.77" /><path
         id="path18"
         style="fill:#ffffff;fill-opacity:1;fill-rule:evenodd;stroke:none"
         d="m 1522.73,520 c -48.2,-1.25 -88.28,-17.891 -120.31,-49.922 -32.07,-32.027 -48.71,-72.109 -49.92,-120.308 1.21,-48.442 17.85,-88.641 49.92,-120.668 32.03,-32.032 72.11,-48.672 120.31,-49.922 48.4,1.25 88.64,17.89 120.67,49.922 32.03,32.027 48.67,72.226 49.92,120.668 -1.25,48.199 -17.89,88.281 -49.92,120.308 -32.03,32.031 -72.27,48.672 -120.67,49.922 m 0,-348.012 c -50.23,1.211 -91.95,18.633 -125.23,52.192 -33.55,33.32 -50.94,75.16 -52.23,125.59 1.29,50.191 18.68,91.91 52.23,125.23 33.28,33.551 75,50.941 125.23,52.191 50.16,-1.25 92.04,-18.64 125.59,-52.191 33.52,-33.32 50.94,-75.039 52.19,-125.23 -1.25,-50.161 -18.67,-92.04 -52.19,-125.59 -33.28,-33.559 -75.16,-50.981 -125.59,-52.192" /><path
         id="path20"
         style="fill:#ffffff;fill-opacity:1;fill-rule:evenodd;stroke:none"
         d="m 1523.09,411.84 c -37.86,-3.559 -58.48,-24.219 -62.04,-62.07 3.56,-37.579 24.18,-58.25 62.04,-62.04 37.57,3.79 58.28,24.461 62.07,62.04 -3.79,37.851 -24.5,58.511 -62.07,62.07 m 0,-147.539 c -24.22,0.738 -44.38,9.058 -60.55,24.961 -16.13,16.129 -24.42,36.328 -24.92,60.508 0.5,24.21 8.79,44.41 24.92,60.539 16.17,16.14 36.33,24.461 60.55,24.961 24.21,-0.5 44.37,-8.821 60.5,-24.961 15.9,-16.129 24.26,-36.329 25,-60.539 -0.74,-24.18 -9.1,-44.379 -25,-60.508 -16.13,-15.903 -36.29,-24.223 -60.5,-24.961" /><path
         id="path22"
         style="fill:#000000;fill-opacity:1;fill-rule:evenodd;stroke:none"
         d="m 1523.09,366.41 c -10.32,-0.75 -15.86,-6.289 -16.64,-16.64 0.78,-10.321 6.32,-16.02 16.64,-17 10.35,0.98 16.01,6.679 17.03,17 -1.02,10.351 -6.68,15.89 -17.03,16.64 m 0,-49.93 c -20.16,1.758 -31.29,12.899 -33.29,33.29 2,20.152 13.13,31.281 33.29,33.281 20.43,-2 31.52,-13.129 33.32,-33.281 -1.8,-20.391 -12.89,-31.532 -33.32,-33.29" /><path
         id="path24"
         style="fill:#ffffff;fill-opacity:1;fill-rule:evenodd;stroke:none"
         d="m 1535.2,366.051 -42.74,157.347 6.8,1.911 42.73,-157.77 -6.79,-1.488" /><path
         id="path26"
         style="fill:#ffffff;fill-opacity:1;fill-rule:evenodd;stroke:none"
         d="m 1510.98,366.051 -6.8,1.488 42.73,157.77 6.8,-1.911 -42.73,-157.347" /><path
         id="path28"
         style="fill:#ffffff;fill-opacity:1;fill-rule:evenodd;stroke:none"
         d="m 1548.44,355.078 -6.8,1.871 46.52,156.641 6.8,-1.91 -46.52,-156.602" /><path
         id="path30"
         style="fill:#ffffff;fill-opacity:1;fill-rule:evenodd;stroke:none"
         d="m 1521.17,370.199 -4.88,4.922 119.53,111.598 4.53,-5.309 -119.18,-111.211" /><path
         id="path32"
         style="fill:#ffffff;fill-opacity:1;fill-rule:evenodd;stroke:none"
         d="m 1546.91,341.051 -4.53,5.32 121.84,108.551 4.49,-5.274 -121.8,-108.597" /><path
         id="path34"
         style="fill:#ffffff;fill-opacity:1;fill-rule:evenodd;stroke:none"
         d="m 1531.8,367.93 -1.53,7.191 160.04,31.789 1.49,-6.832 -160,-32.148" /><path
         id="path36"
         style="fill:#ffffff;fill-opacity:1;fill-rule:evenodd;stroke:none"
         d="m 1538.59,330.121 -1.13,6.789 160.78,28.399 1.14,-6.829 -160.79,-28.359" /><path
         id="path38"
         style="fill:#ffffff;fill-opacity:1;fill-rule:evenodd;stroke:none"
         d="m 1692.58,303.98 -152.81,57.149 2.61,6.41 152.82,-57.109 -2.62,-6.45" /><path
         id="path40"
         style="fill:#ffffff;fill-opacity:1;fill-rule:evenodd;stroke:none"
         d="m 1677.07,264.301 -151.72,60.5 2.66,6.449 151.72,-60.551 -2.66,-6.398" /><path
         id="path42"
         style="fill:#ffffff;fill-opacity:1;fill-rule:evenodd;stroke:none"
         d="m 1643.01,221.52 -100.24,129.378 5.67,4.18 99.88,-129.027 -5.31,-4.531" /><path
         id="path44"
         style="fill:#ffffff;fill-opacity:1;fill-rule:evenodd;stroke:none"
         d="m 1608.59,196.172 -97.22,131.289 5.66,4.141 97.23,-131.25 -5.67,-4.18" /><path
         id="path46"
         style="fill:#ffffff;fill-opacity:1;fill-rule:evenodd;stroke:none"
         d="m 1556.76,178.051 -16.99,162.258 7.14,0.742 17.04,-162.262 -7.19,-0.738" /><path
         id="path48"
         style="fill:#ffffff;fill-opacity:1;fill-rule:evenodd;stroke:none"
         d="m 1514.77,173.871 -13.64,162.649 7.19,0.75 13.63,-162.661 -7.18,-0.738" /><path
         id="path50"
         style="fill:#ffffff;fill-opacity:1;fill-rule:evenodd;stroke:none"
         d="m 1467.85,182.578 -6.4,3.012 70.74,147.18 6.4,-3.04 -70.74,-147.152" /><path
         id="path52"
         style="fill:#ffffff;fill-opacity:1;fill-rule:evenodd;stroke:none"
         d="m 1429.65,201.879 -6.45,3 74.18,145.633 6.06,-3.012 -73.79,-145.621" /><path
         id="path54"
         style="fill:#ffffff;fill-opacity:1;fill-rule:evenodd;stroke:none"
         d="m 1387.66,237.031 -3.79,6.059 137.69,87.769 3.79,-6.058 -137.69,-87.77" /><path
         id="path56"
         style="fill:#ffffff;fill-opacity:1;fill-rule:evenodd;stroke:none"
         d="m 1365.35,272.969 -3.79,6.051 139.57,84.73 3.79,-6.02 -139.57,-84.761" /><path
         id="path58"
         style="fill:#ffffff;fill-opacity:1;fill-rule:evenodd;stroke:none"
         d="m 1347.93,325.199 v 7.18 l 163.44,2.269 v -7.187 l -163.44,-2.262" /><path
         id="path60"
         style="fill:#ffffff;fill-opacity:1;fill-rule:evenodd;stroke:none"
         d="m 1511.37,366.41 -163.44,1.129 v 7.231 l 163.44,-1.18 v -7.18" /><path
         id="path62"
         style="fill:#ffffff;fill-opacity:1;fill-rule:evenodd;stroke:none"
         d="m 1501.13,336.91 -139.96,83.988 3.79,6.051 139.96,-83.98 -3.79,-6.059" /><path
         id="path64"
         style="fill:#ffffff;fill-opacity:1;fill-rule:evenodd;stroke:none"
         d="m 1521.56,370.199 -138.08,87.031 3.79,6.051 138.08,-87.031 -3.79,-6.051" /><path
         id="path66"
         style="fill:#ffffff;fill-opacity:1;fill-rule:evenodd;stroke:none"
         d="m 1497.38,350.512 -74.92,144.918 6.45,3.398 74.92,-145.277 -6.45,-3.039" /><path
         id="path68"
         style="fill:#000000;fill-opacity:1;fill-rule:evenodd;stroke:none"
         d="m 1811.76,139.449 c 2.26,0.242 12.73,14.852 31.36,43.871 18.4,28.981 31.76,71.02 40.12,125.981 8.32,54.719 -2.03,120.82 -31.05,198.199 -3.75,3.551 -5.39,19.801 -4.89,48.828 0.28,29.024 25.59,49.922 76.06,62.774 30.23,4.296 93.16,9.339 188.75,15.16 95.86,6.047 204.53,15.386 326.09,28.008 121.8,12.57 237.19,31.402 346.18,56.359 108.67,24.961 191.36,58.75 248.12,101.371 0.78,-1.762 -6.41,-17.031 -21.52,-45.781 -14.93,-28.481 -42.62,-59.141 -83.25,-91.918 -40.62,-33.039 -98.75,-57.031 -174.41,-71.871 -255.74,-39.102 -454.34,-58.239 -595.82,-57.5 -141.48,0.468 -217.66,-5.821 -228.48,-18.95 -4.57,-13.589 -5.31,-43.82 -2.26,-90.781 2.77,-46.91 -2.42,-98.59 -15.55,-155.109 -13.36,-56.449 -46.52,-106.02 -99.45,-148.641" /><path
         id="path70"
         style="fill:#757575;fill-opacity:1;fill-rule:evenodd;stroke:none"
         d="m 2882.34,627.461 c -44.18,-28.512 -109.49,-50.582 -195.97,-66.211 -86.25,-15.629 -178.83,-26.602 -277.66,-32.93 -98.87,-6.519 -189.18,-10.199 -270.9,-10.98 -81.44,-0.969 -139.45,-1.09 -174.02,-0.352 2.07,-14.648 3.28,-37.687 3.79,-69.218 275.66,-2.54 479.06,10.71 610.23,39.691 131.41,29.258 216.14,59.258 254.18,90.039 37.85,30.781 54.65,47.422 50.35,49.961" /><path
         id="path72"
         style="fill:#c5c5c5;fill-opacity:1;fill-rule:evenodd;stroke:none"
         d="m 2731.02,510.199 c -45.9,-28.789 -113.75,-50.32 -203.56,-64.73 -89.76,-14.098 -185.47,-23.559 -287.11,-28.36 -101.37,-4.531 -192.65,-6.558 -273.9,-6.058 -1.25,-21.949 -4.03,-45.11 -8.33,-69.602 231.02,1.281 402.15,15.5 513.36,42.77 110.98,26.992 182.86,54.179 215.63,81.679 32.81,27.543 47.42,42.262 43.91,44.301" /><path
         id="path74"
         style="fill:#e1e1e1;fill-opacity:1;fill-rule:evenodd;stroke:none"
         d="m 2586.09,404.262 c -37.81,-23.481 -91.52,-41.602 -161.13,-54.492 -69.84,-13.129 -146.41,-22.309 -229.61,-27.622 -83.51,-5.269 -164.57,-8.089 -243.24,-8.32 -5.59,-23.437 -13.52,-46.527 -23.87,-69.219 195.47,4.801 340.47,19.922 435.04,45.391 94.57,25.469 156.02,50.43 184.26,74.922 28.48,24.457 41.37,37.539 38.55,39.34" /><path
         id="path76"
         style="fill:#000000;fill-opacity:1;fill-rule:evenodd;stroke:none"
         d="m 1866.21,156.449 c 170.24,4.571 296.95,18.321 380.2,41.25 82.97,22.692 137.3,45.153 163.04,67.34 25.71,21.949 37.35,33.672 34.81,35.191 -49.92,-28.511 -123.48,-48.199 -220.55,-59.019 -97.11,-11.09 -199.1,-16.762 -306.05,-17.031 -13.13,-24.731 -30.24,-47.301 -51.45,-67.731" /><path
         id="path78"
         style="fill:#000000;fill-opacity:1;fill-rule:evenodd;stroke:none"
         d="m 1220.82,139.449 c -2.27,0.242 -12.73,14.852 -31.37,43.871 -18.71,28.981 -32.18,71.02 -40.5,125.981 -8.09,54.719 2.26,120.82 31.01,198.199 3.79,3.551 5.59,19.801 5.31,48.828 -0.5,29.024 -25.86,49.922 -76.05,62.774 -30.27,4.296 -93.32,9.339 -189.142,15.16 -95.59,6.047 -204.297,15.386 -326.098,28.008 C 472.148,674.84 356.91,693.672 248.199,718.629 139.531,743.59 56.8008,777.379 0.0390625,820 -0.699219,818.238 6.37109,802.969 21.2109,774.219 36.3711,745.738 64.2188,715.078 104.84,682.301 145.199,649.262 203.199,625.27 278.871,610.43 534.84,571.328 733.59,552.191 875.078,552.93 c 141.442,0.468 217.622,-5.821 228.472,-18.95 4.3,-13.589 5.04,-43.82 2.27,-90.781 -3.01,-46.91 2.15,-98.59 15.51,-155.109 13.12,-56.449 46.29,-106.02 99.49,-148.641" /><path
         id="path80"
         style="fill:#757575;fill-opacity:1;fill-rule:evenodd;stroke:none"
         d="m 149.84,627.461 c 44.14,-28.512 109.461,-50.582 195.98,-66.211 86.52,-15.629 179.18,-26.602 278.051,-32.93 98.859,-6.519 189.02,-10.199 270.508,-10.98 81.711,-0.969 139.681,-1.09 173.981,-0.352 -1.99,-14.648 -3.13,-37.687 -3.4,-69.218 -275.62,-2.54 -479.179,10.71 -610.581,39.691 -131.367,29.258 -215.981,59.258 -253.828,90.039 -38.09,30.781 -55,47.422 -50.711,49.961" /><path
         id="path82"
         style="fill:#c5c5c5;fill-opacity:1;fill-rule:evenodd;stroke:none"
         d="m 301.172,510.199 c 45.898,-28.789 113.75,-50.32 203.519,-64.73 89.797,-14.098 185.387,-23.559 286.758,-28.36 101.641,-4.531 193.039,-6.558 274.251,-6.058 1.02,-21.949 3.79,-45.11 8.36,-69.602 -231.29,1.281 -402.38,15.5 -513.4,42.77 -110.93,26.992 -182.808,54.179 -215.621,81.679 -32.769,27.543 -47.379,42.262 -43.867,44.301" /><path
         id="path84"
         style="fill:#e1e1e1;fill-opacity:1;fill-rule:evenodd;stroke:none"
         d="m 446.051,404.262 c 37.859,-23.481 91.57,-41.602 161.179,-54.492 69.84,-13.129 146.399,-22.309 229.61,-27.622 83.512,-5.269 164.57,-8.089 243.28,-8.32 5.5,-23.437 13.47,-46.527 23.83,-69.219 -195.47,4.801 -340.47,19.922 -435.079,45.391 -94.57,25.469 -156.101,50.43 -184.57,74.922 -28.281,24.457 -41.02,37.539 -38.25,39.34" /><path
         id="path86"
         style="fill:#000000;fill-opacity:1;fill-rule:evenodd;stroke:none"
         d="m 1165.98,156.449 c -170.242,4.571 -297,18.321 -380.199,41.25 -83.242,22.692 -137.582,45.153 -163.051,67.34 -25.742,21.949 -37.339,33.672 -34.8,35.191 49.922,-28.511 123.441,-48.199 220.55,-59.019 97.11,-11.09 199.1,-16.762 306.05,-17.031 13.09,-24.731 30.24,-47.301 51.45,-67.731" /></g></g></svg>